# xmcd
#
# Track frame offsets: 
#        150
#        25648
#        45810
#        65688
#        89924
#        109010
#        130026
#        156438
#        175091
#        198584
#        223713
#        249885
#
# Disc length: 3624 seconds
#
# Revision: 4
# Processed by: cddbd v1.5.2PL0 Copyright (c) Steve Scherf et al.
# Submitted via: ExactAudioCopyFreeDBPlugin 1.0
#
DISCID=a00e260c
DTITLE=Charlie Haden Quartet West - Sophisticated Ladies
DYEAR=2010
DGENRE=Jazz
TTITLE0=Melody Gardot - If I'm Lucky
TTITLE1=Sophisticated Lady
TTITLE2=Norah Jones - Ill Wind
TTITLE3=Today I Am A Man
TTITLE4=Cassandra Wilson - My Love And I
TTITLE5=Theme From "Markham"
TTITLE6=Ruth Cameron - Let's Call It A Day
TTITLE7=Angel Face
TTITLE8=Renée Fleming - A Love Like This
TTITLE9=My Old Flame
TTITLE10=Diana Krall - Goodbye
TTITLE11=Wahoo
EXTD=YEAR: 2010
EXTT0=
EXTT1=
EXTT2=
EXTT3=
EXTT4=
EXTT5=
EXTT6=
EXTT7=
EXTT8=
EXTT9=
EXTT10=
EXTT11=
PLAYORDER=
